<svg xmlns="http://www.w3.org/2000/svg"  viewBox="0 0 50 50" width="48px" height="48px"><path d="M 11 2 C 10.675781 2 10.375 2.171875 10.1875 2.4375 C 10 2.703125 9.953125 3.035156 10.0625 3.34375 C 10.257813 3.902344 10.574219 4.605469 11 5.34375 C 11.414063 5.328125 11.828125 5.3125 12.25 5.3125 C 13.082031 5.3125 13.949219 5.339844 14.78125 5.40625 C 16.621094 4.304688 18.441406 3.597656 20.34375 3.25 C 18.160156 2.578125 15.105469 2 11 2 Z M 23.09375 5 C 19.585938 5 16.976563 6.355469 15.25 7.46875 C 12.035156 7.132813 7.34375 7.199219 2.53125 9.1875 C 2.167969 9.335938 1.921875 9.671875 1.90625 10.0625 C 1.890625 10.453125 2.085938 10.824219 2.4375 11 C 2.703125 11.132813 4.28125 12.605469 4.875 13.125 C 6.199219 14.289063 8.632813 15.476563 10.8125 16.15625 C 12.816406 16.800781 14.269531 15.914063 15.0625 15.4375 C 15.21875 15.34375 15.339844 15.269531 15.4375 15.21875 C 15.933594 14.972656 16.535156 15.164063 16.78125 15.65625 C 17.027344 16.148438 16.835938 16.753906 16.34375 17 C 16.28125 17.03125 16.195313 17.0625 16.09375 17.125 C 15.410156 17.535156 14.035156 18.375 12.1875 18.375 C 11.570313 18.375 10.902344 18.292969 10.1875 18.0625 C 9.542969 17.859375 8.90625 17.59375 8.28125 17.3125 C 8.035156 17.574219 7.796875 17.835938 7.53125 18.0625 C 6.542969 18.5625 5.292969 18.972656 3.8125 19.09375 C 3.433594 19.125 3.109375 19.363281 2.96875 19.71875 C 2.828125 20.074219 2.898438 20.5 3.15625 20.78125 C 3.230469 20.867188 4.6875 22.4375 6.5625 23.15625 C 5.339844 24.523438 3.148438 25.921875 2.21875 26.4375 C 1.898438 26.617188 1.683594 26.949219 1.6875 27.3125 C 1.691406 27.675781 1.898438 28.011719 2.21875 28.1875 C 2.527344 28.355469 3.730469 28.984375 4.90625 29.34375 C 3.296875 32.855469 0.496094 34.730469 0.46875 34.75 C 0.0664063 35.011719 -0.113281 35.527344 0.0625 35.96875 C 0.265625 36.464844 12.328125 42.488281 26.09375 48.1875 C 26.414063 48.320313 26.753906 48.015625 26.9375 47.71875 C 27.121094 47.421875 27.15625 47.0625 27 46.75 C 26.984375 46.722656 25.703125 44.175781 26.125 41.9375 C 26.960938 42.371094 28.164063 42.792969 29.53125 42.59375 C 29.855469 42.546875 30.164063 42.328125 30.3125 42.03125 C 30.460938 41.734375 30.441406 41.410156 30.28125 41.125 C 29.828125 40.308594 28.699219 37.640625 29.375 36.21875 C 29.679688 35.699219 29.652344 35.695313 30.59375 35.96875 C 31.546875 36.242188 33.015625 36.644531 35.1875 36.28125 C 35.414063 36.242188 35.503906 36.261719 35.5 36.25 C 35.597656 36.390625 35.589844 36.996094 35.4375 37.5 C 35.3125 37.898438 35.453125 38.339844 35.78125 38.59375 C 36.113281 38.847656 36.582031 38.875 36.9375 38.65625 C 37.351563 38.398438 40.988281 36.066406 41.5625 33.53125 C 41.613281 33.3125 41.597656 33.078125 41.5 32.875 C 40.867188 31.546875 39.699219 30.597656 38.28125 29.875 C 38.199219 29.84375 38.113281 29.8125 38.03125 29.78125 C 38.226563 28.976563 38.328125 27.792969 37.90625 26.3125 C 36.707031 27.8125 35.1875 28.90625 35.1875 28.90625 C 35.1875 28.90625 35.195313 28.929688 35.1875 28.9375 C 34.777344 28.839844 34.382813 28.742188 33.96875 28.65625 C 34.058594 28.125 34.09375 27.554688 34.09375 26.90625 C 33.421875 27.503906 32.699219 27.917969 32.09375 28.25 C 31.929688 28.21875 31.757813 28.1875 31.59375 28.15625 C 31.71875 27.5625 31.765625 26.890625 31.6875 26.09375 C 30.863281 26.835938 29.992188 27.320313 29.34375 27.65625 C 29.21875 27.625 29.089844 27.597656 28.96875 27.5625 C 29.132813 26.917969 29.273438 26.160156 29.1875 25.3125 C 28.417969 25.996094 27.605469 26.515625 26.9375 26.84375 C 25.238281 25.976563 24.566406 24.613281 26 22.1875 C 26.941406 20.554688 28.203125 19.757813 30 20.03125 C 30 20.722656 30 21.671875 29.90625 22.8125 C 30.960938 22.429688 31.726563 21.671875 32.40625 20.90625 C 32.445313 20.925781 32.492188 20.949219 32.53125 20.96875 C 32.675781 21.542969 33.089844 22.292969 32.8125 24.3125 C 33.6875 24.050781 34.472656 23.242188 35.0625 22.375 C 35.160156 22.425781 35.246094 22.484375 35.34375 22.53125 C 35.386719 23.269531 35.347656 24.210938 35.1875 25.40625 C 36.039063 25.152344 36.824219 24.296875 37.46875 23.4375 C 37.929688 23.605469 38.378906 23.71875 38.8125 23.84375 C 38.835938 23.921875 39.296875 25.574219 38.90625 28.40625 C 40.542969 27.832031 41.871094 25.425781 42.3125 24.53125 C 43.453125 24.640625 44.335938 24.628906 44.875 24.59375 C 44.910156 24.585938 44.957031 24.597656 44.96875 24.59375 C 45.234375 24.546875 45.472656 24.378906 45.625 24.15625 C 46.027344 23.566406 49.390625 18.558594 49.15625 15.375 C 49.601563 14.757813 50.203125 13.675781 49.84375 12.65625 C 49.714844 12.285156 49.335938 11.613281 48.21875 11.40625 C 47.039063 11.25 46.121094 11.199219 45.71875 11.1875 C 44.847656 10.828125 41.226563 9.46875 36.125 9.21875 C 34.765625 7.355469 32.617188 5 23.09375 5 Z M 28.34375 12.125 C 29.707031 12.0625 31.449219 12.136719 33 12.6875 C 31.800781 13.1875 30.488281 14.113281 29.1875 15.3125 C 27.488281 15.113281 26.097656 13.105469 26 12.40625 C 26 12.40625 26.980469 12.1875 28.34375 12.125 Z"/></svg>